<?xml version="1.0" encoding="UTF-8" standalone="no"?>
<svg
   xmlns:dc="http://purl.org/dc/elements/1.1/"
   xmlns:cc="http://creativecommons.org/ns#"
   xmlns:rdf="http://www.w3.org/1999/02/22-rdf-syntax-ns#"
   xmlns:svg="http://www.w3.org/2000/svg"
   xmlns="http://www.w3.org/2000/svg"
   viewBox="0 0 566.93335 566.93335"
   height="566.93335"
   width="566.93335"
   xml:space="preserve"
   id="svg2"
   version="1.1"><metadata
     id="metadata8"><rdf:RDF><cc:Work
         rdf:about=""><dc:format>image/svg+xml</dc:format><dc:type
           rdf:resource="http://purl.org/dc/dcmitype/StillImage" /></cc:Work></rdf:RDF></metadata><defs
     id="defs6" /><g
     transform="matrix(1.3333333,0,0,-1.3333333,0,566.93333)"
     id="g10"><g
       transform="scale(0.1)"
       id="g12"><path
         id="path14"
         style="fill:#42a5ad;fill-opacity:1;fill-rule:nonzero;stroke:none"
         d="M 0,4251.97 V 0 H 4251.96 V 4251.97 H 0" /><path
         id="path16"
         style="fill:none;stroke:#4c271b;stroke-width:98.90910339;stroke-linecap:round;stroke-linejoin:miter;stroke-miterlimit:10;stroke-dasharray:none;stroke-opacity:1"
         d="M 2656.05,2447.83 2805.54,2429 c 46.04,-5.8 89.96,21.07 105.76,64.7 l 106.01,292.77" /><path
         id="path18"
         style="fill:none;stroke:#e8e0d8;stroke-width:98.90910339;stroke-linecap:round;stroke-linejoin:miter;stroke-miterlimit:10;stroke-dasharray:none;stroke-opacity:1"
         d="m 2607.79,2453.91 48.26,-6.08" /><path
         id="path20"
         style="fill:#f78e75;fill-opacity:1;fill-rule:nonzero;stroke:none"
         d="m 2536.98,2526.08 c 40.28,1.88 80.23,-17.54 105.91,-52.77 14.64,-20 10.24,-48.16 -9.83,-62.79 -20.05,-14.62 -48.16,-10.22 -62.78,9.84 -8.52,11.67 -22.32,17.97 -33.56,15.32 l 0.26,90.4" /><path
         id="path22"
         style="fill:#4c271b;fill-opacity:1;fill-rule:nonzero;stroke:none"
         d="m 2945.99,977.121 1.71,-132.351 c 0.27,-21.231 19.02,-38.18 41.83,-37.891 22.84,0.332 41.15,17.742 40.84,38.902 l -1.68,132.387 -82.7,-1.047" /><path
         id="path24"
         style="fill:#101325;fill-opacity:1;fill-rule:nonzero;stroke:none"
         d="m 3046.25,903.801 -15.11,1152.489 c -0.41,31.85 -28.55,57.35 -62.92,56.93 -34.36,-0.46 -61.87,-26.66 -61.46,-58.53 l 15.1,-1150.979 124.39,0.09" /><path
         id="path26"
         style="fill:#101325;fill-opacity:1;fill-rule:nonzero;stroke:none"
         d="m 3115.73,2155.27 c -110.78,0 -200.66,-100.44 -200.66,-224.3 v -45.78 h 401.4 v 45.78 c 0,123.86 -89.83,224.3 -200.74,224.3" /><path
         id="path28"
         style="fill:#4c271b;fill-opacity:1;fill-rule:nonzero;stroke:none"
         d="m 3253.05,966.578 7.18,-133.789 c 1.24,-21.437 21.01,-37.73 44.14,-36.32 23.12,1.402 40.87,19.781 39.63,41.101 l -7.12,133.258 -83.83,-4.25" /><path
         id="path30"
         style="fill:#162a41;fill-opacity:1;fill-rule:nonzero;stroke:none"
         d="m 3354.96,912.461 c -20.32,391.189 -33.88,752.549 -42.97,1144.629 -0.68,31.68 -29.06,56.77 -63.39,56.13 -34.35,-0.65 -61.68,-27.07 -61,-58.88 9.12,-391.95 22.62,-752.53 42.98,-1144.551 l 124.38,2.672" /><path
         id="path32"
         style="fill:#101325;fill-opacity:1;fill-rule:nonzero;stroke:none"
         d="m 2995.17,839.18 h 35.38 c 18.33,0 33.18,-14.879 33.18,-33.2 0,-31.89 -0.02,-54.929 -0.02,-54.929 h -293.42 v 23.211 c 0,24.316 17.17,45.238 41.02,50 l 30.88,6.148 c 24.37,4.871 44.96,18.84 64.35,34.391 5.25,4.199 11.9,6.711 19.12,6.711 h 11.69 c 11.89,0 21.52,-9.633 21.52,-21.532 v -10.82 l 36.3,0.02" /><path
         id="path34"
         style="fill:#101325;fill-opacity:1;fill-rule:nonzero;stroke:none"
         d="m 3306.71,839.18 h 35.38 c 18.33,0 33.18,-14.879 33.18,-33.2 0,-31.89 -0.02,-54.929 -0.02,-54.929 h -293.41 v 23.211 c 0,24.316 17.16,45.238 41,50 l 30.88,6.148 c 24.39,4.871 44.97,18.84 64.37,34.391 5.23,4.199 11.89,6.711 19.12,6.711 h 11.69 c 11.88,0 21.51,-9.633 21.51,-21.532 v -10.82 l 36.3,0.02" /><path
         id="path36"
         style="fill:#4c271b;fill-opacity:1;fill-rule:nonzero;stroke:none"
         d="m 2918.55,2158.56 405.18,-46.44 -12.4,-108.14 -405.18,46.44 12.4,108.14" /><path
         id="path38"
         style="fill:#6b412b;fill-opacity:1;fill-rule:nonzero;stroke:none"
         d="m 2967.45,2784.43 -11.51,-180.92 c -0.09,-1.33 -0.22,-2.67 -0.4,-4 l -58.28,-424.21 c -4.15,-30.23 17.05,-58.08 47.3,-62.11 l 349.59,-46.63 c 30.08,-4.01 57.74,17.06 61.87,47.12 l 58.36,424.86 c 0.15,1.18 0.36,2.36 0.59,3.53 l 36.36,177.88 c 5.41,26.51 -8.98,53.66 -34.5,62.61 -124.31,43.57 -262.32,63.23 -399.6,53.32 -27,-1.96 -48.06,-24.43 -49.78,-51.45" /><path
         id="path40"
         style="fill:#4c271b;fill-opacity:1;fill-rule:nonzero;stroke:none"
         d="m 3072.48,2838.19 45.91,-409.4 237.12,372.74 c -90.41,25.14 -186.37,38.13 -283.03,36.66" /><path
         id="path42"
         style="fill:#8bbb25;fill-opacity:1;fill-rule:nonzero;stroke:none"
         d="m 3148.51,2558.91 -31.3,278.96 c 65.52,-1.97 130.31,-10.55 192.97,-24.85 l -161.67,-254.11" /><path
         id="path44"
         style="fill:#f78e75;fill-opacity:1;fill-rule:nonzero;stroke:none"
         d="m 3164.47,2829.48 v 0 l 10.51,174.63 c 1.73,28.81 26.5,50.77 55.29,49.04 28.82,-1.74 50.79,-26.51 49.05,-55.32 l -10.51,-174.63 -66.99,-44.81 -37.35,51.09" /><path
         id="path46"
         style="fill:none;stroke:#6b412b;stroke-width:98.90910339;stroke-linecap:round;stroke-linejoin:miter;stroke-miterlimit:10;stroke-dasharray:none;stroke-opacity:1"
         d="m 3188.75,2329.41 268.23,27.35 c 99.54,10.15 148.46,126.36 86.16,204.64 l -134.62,169.15" /><path
         id="path48"
         style="fill:none;stroke:#e8e0d8;stroke-width:98.90910339;stroke-linecap:round;stroke-linejoin:miter;stroke-miterlimit:10;stroke-dasharray:none;stroke-opacity:1"
         d="m 3171.94,2327.68 16.81,1.73" /><path
         id="path50"
         style="fill:#f78e75;fill-opacity:1;fill-rule:nonzero;stroke:none"
         d="m 3195.95,2310.17 c 7.22,14.7 7.23,34.85 -8.6,55.45 -57.44,28.82 -127.94,5.13 -161.9,-54.8 3.81,-57.3 58.56,-67.03 83.01,-37.25 9.17,11.17 23.31,16.67 34.38,13.39 21.33,-6.33 43.63,3.9 53.11,23.21" /><path
         id="path52"
         style="fill:#101325;fill-opacity:1;fill-rule:nonzero;stroke:none"
         d="m 3245.72,3320.15 -110.35,29.62 c -41.24,11.07 -81.47,-14.96 -83.55,-54.06 l -7.11,-133.54 147.94,-39.71 53.07,197.69" /><path
         id="path54"
         style="fill:#f78e75;fill-opacity:1;fill-rule:nonzero;stroke:none"
         d="m 3025.51,3127.18 c 6.22,23.16 15.91,46.08 32.99,62.97 8.93,8.84 14.18,20.59 17.44,32.72 3.67,13.7 8.52,31.75 13.28,49.49 9.72,36.19 46.93,57.65 83.13,47.93 l 268.88,-72.17 -58.25,-217.01 c -26.25,-97.75 -126.8,-155.69 -224.52,-129.37 l -32.27,8.69 c -81.83,22.04 -130.34,106.21 -108.38,188.06 l 7.7,28.69" /><path
         id="path56"
         style="fill:#101325;fill-opacity:1;fill-rule:nonzero;stroke:none"
         d="m 3226.45,3433.9 20.59,-5.53 c 55.18,-14.81 102.54,-50.31 132.24,-99.12 l 24.24,-39.84 v 0 c 53.68,-14.41 81.85,-73.31 59.39,-124.15 l -53.93,-122.04 -91.53,24.57 c -10.99,2.95 -17.52,14.26 -14.57,25.25 l 6.85,25.51 c 2.28,26.41 -14.53,51.47 -41.03,58.63 l 38.27,62.38 -97.22,26.1 c -31.83,8.55 -59.31,30.29 -72.11,60.65 -29.85,70.81 32.7,122.65 88.81,107.59" /><path
         id="path58"
         style="fill:#f78e75;fill-opacity:1;fill-rule:nonzero;stroke:none"
         d="m 3406.75,3122.79 v 0 c 29.01,-7.8 49.15,-36.53 42.85,-65.9 -6.71,-31.31 -38.1,-50.19 -68.63,-41.99 l -47.71,12.8 16.74,62.36 c 6.63,24.7 32.04,39.36 56.75,32.73" /><path
         id="path60"
         style="fill:#2f2d32;fill-opacity:1;fill-rule:nonzero;stroke:none"
         d="m 3035.27,3056.95 -19.97,-74.43 c -11.72,-43.65 9.21,-90.96 51.06,-108.05 50.59,-20.66 106.11,8.03 119.82,59.09 l 20.75,77.31 c 5.6,20.83 -6.75,42.24 -27.58,47.83 l -96.23,25.84 c -20.83,5.59 -42.25,-6.76 -47.85,-27.59" /><path
         id="path62"
         style="fill:#101325;fill-opacity:1;fill-rule:nonzero;stroke:none"
         d="m 3171.76,3012.83 v 0 c -6.83,-26.55 -31.07,-46.69 -58.39,-44.51 -35.35,2.84 -58.04,36.28 -49.62,69.04 l 0.78,3.04 c 3.32,12.92 16.5,20.71 29.42,17.39 l 60.42,-15.54 c 12.93,-3.32 20.71,-16.49 17.39,-29.42" /><path
         id="path64"
         style="fill:none;stroke:#101325;stroke-width:14.15180016;stroke-linecap:round;stroke-linejoin:miter;stroke-miterlimit:10;stroke-dasharray:none;stroke-opacity:1"
         d="m 3196.57,3154.06 c 4.92,6.53 13.55,9.81 22.12,7.61 8.58,-2.21 14.55,-9.25 15.71,-17.34" /><path
         id="path66"
         style="fill:none;stroke:#101325;stroke-width:14.15180016;stroke-linecap:round;stroke-linejoin:miter;stroke-miterlimit:10;stroke-dasharray:none;stroke-opacity:1"
         d="m 3082.21,3183.45 c 4.91,6.53 13.55,9.81 22.12,7.61 8.57,-2.2 14.55,-9.24 15.7,-17.33" /><path
         id="path68"
         style="fill:#f4f0de;fill-opacity:1;fill-rule:nonzero;stroke:none"
         d="m 3063.6,3036.37 c 0.09,0.33 0.06,0.66 0.15,0.99 l 0.78,3.04 c 3.32,12.92 16.5,20.71 29.42,17.39 l 60.42,-15.54 c 12.93,-3.32 20.71,-16.5 17.39,-29.42 -0.35,-1.35 -0.93,-2.59 -1.37,-3.9 l -106.79,27.44" /><path
         id="path70"
         style="fill:#843248;fill-opacity:1;fill-rule:nonzero;stroke:none"
         d="m 3089.79,2982.94 c 13.94,10.38 32.08,14.98 50.45,11.2 6.46,-1.34 12.26,-3.95 17.7,-7.05 -11.19,-12.52 -27.24,-20.15 -44.57,-18.77 -10.67,0.87 -20,4.75 -27.86,10.34 1.25,1.52 2.57,3.01 4.28,4.28" /><path
         id="path72"
         style="fill:#e8e0d8;fill-opacity:1;fill-rule:nonzero;stroke:none"
         d="m 2561.15,2390.09 h -42.08 c -13.56,0 -24.89,10.34 -26.13,23.85 l -10.79,118.1 c -1.27,13.87 9.65,25.83 23.57,25.83 h 68.78 c 13.93,0 24.85,-11.96 23.58,-25.83 l -10.79,-118.1 c -1.24,-13.51 -12.57,-23.85 -26.14,-23.85" /><path
         id="path74"
         style="fill:#f78e75;fill-opacity:1;fill-rule:nonzero;stroke:none"
         d="m 2508.95,2412.37 v 0 c -18.06,0 -32.71,14.64 -32.71,32.7 v 49.37 c 0,18.06 14.65,32.7 32.71,32.7 v 0 c 18.06,0 32.7,-14.64 32.7,-32.7 v -49.37 c 0,-18.06 -14.64,-32.7 -32.7,-32.7" /><path
         id="path76"
         style="fill:none;stroke:#e02c39;stroke-width:98.90910339;stroke-linecap:round;stroke-linejoin:miter;stroke-miterlimit:10;stroke-dasharray:none;stroke-opacity:1"
         d="m 1822.76,2747.59 -64.79,-278.2 c -15.42,-66.21 -94.75,-93.52 -147.67,-50.85 l -228.19,184.07" /><path
         id="path78"
         style="fill:none;stroke:#e8e0d8;stroke-width:98.90910339;stroke-linecap:round;stroke-linejoin:miter;stroke-miterlimit:10;stroke-dasharray:none;stroke-opacity:1"
         d="m 1829.29,2775.59 -6.53,-28" /><path
         id="path80"
         style="fill:#e02c39;fill-opacity:1;fill-rule:nonzero;stroke:none"
         d="m 1421.84,954.07 -30.97,-128.699 c -4.97,-20.633 -27,-33 -49.19,-27.68 -22.2,5.379 -36.2,26.411 -31.22,46.989 l 30.95,128.718 80.43,-19.328" /><path
         id="path82"
         style="fill:#cdc7ac;fill-opacity:1;fill-rule:nonzero;stroke:none"
         d="m 1339.01,839.18 h -35.38 c -18.33,0 -33.18,-14.879 -33.18,-33.2 0,-31.89 0.01,-54.929 0.01,-54.929 h 293.42 v 23.211 c 0,24.316 -17.17,45.238 -41.01,50 l -30.88,6.148 c -24.37,4.871 -44.96,18.84 -64.36,34.391 -5.24,4.199 -11.89,6.711 -19.12,6.711 h -11.69 c -11.88,0 -21.52,-9.633 -21.52,-21.532 v -10.82 l -36.29,0.02" /><path
         id="path84"
         style="fill:none;stroke:#162a41;stroke-width:127.37400055;stroke-linecap:butt;stroke-linejoin:miter;stroke-miterlimit:10;stroke-dasharray:none;stroke-opacity:1"
         d="m 1383.97,997.02 -22.49,-99.321" /><path
         id="path86"
         style="fill:none;stroke:#162a41;stroke-width:127.36699677;stroke-linecap:round;stroke-linejoin:miter;stroke-miterlimit:10;stroke-dasharray:none;stroke-opacity:1"
         d="m 1176.74,1840.13 181.82,-276.73 c 73.02,-111.13 97.68,-247.2 68.31,-376.88 l -42.9,-189.5" /><path
         id="path88"
         style="fill:#162a41;fill-opacity:1;fill-rule:nonzero;stroke:none"
         d="m 1057.33,2097.22 c 110.78,0 200.66,-100.45 200.66,-224.31 v -45.78 h -401.4 v 45.78 c 0,123.86 89.82,224.31 200.74,224.31" /><path
         id="path90"
         style="fill:#f0413e;fill-opacity:1;fill-rule:nonzero;stroke:none"
         d="m 900.227,914.602 -63.5,-117.981 c -10.262,-18.859 -35.086,-25.172 -55.407,-14.043 -20.328,11.121 -28.547,35.313 -18.355,54.07 l 63.242,117.52 74.02,-39.566" /><path
         id="path92"
         style="fill:#e8e0d8;fill-opacity:1;fill-rule:nonzero;stroke:none"
         d="m 803.945,839.18 h -35.382 c -18.333,0 -33.18,-14.879 -33.18,-33.2 0,-31.89 0.008,-54.929 0.008,-54.929 h 293.419 v 23.211 c 0,24.316 -17.16,45.238 -41.005,50 l -30.875,6.148 c -24.379,4.871 -44.969,18.84 -64.371,34.391 -5.235,4.199 -11.883,6.711 -19.118,6.711 h -11.687 c -11.887,0 -21.52,-9.633 -21.52,-21.532 v -10.82 l -36.289,0.02" /><path
         id="path94"
         style="fill:#e02c39;fill-opacity:1;fill-rule:nonzero;stroke:none"
         d="m 1283.46,1982.11 -400.48,77.09 -20.578,-106.89 400.488,-77.09 20.57,106.89" /><path
         id="path96"
         style="fill:#f0413e;fill-opacity:1;fill-rule:nonzero;stroke:none"
         d="m 1424.31,2593.88 -43.22,-176.06 c -0.31,-1.3 -0.59,-2.61 -0.81,-3.93 l -71.49,-422.19 c -5.09,-30.09 -33.67,-50.3 -63.74,-45.09 l -347.499,60.27 c -29.903,5.17 -49.977,33.56 -44.914,63.48 l 71.617,422.83 c 0.199,1.17 0.359,2.35 0.484,3.55 l 18.614,180.6 c 2.773,26.91 24.632,48.5 51.671,49.39 131.647,4.32 269.207,-18.27 397.217,-68.86 25.18,-9.95 38.53,-37.69 32.07,-63.99" /><path
         id="path98"
         style="fill:#e02c39;fill-opacity:1;fill-rule:nonzero;stroke:none"
         d="m 1357.1,2276.97 12.36,73.03 -456.062,79.08 -12.367,-73.02 456.069,-79.09" /><path
         id="path100"
         style="fill:#e02c39;fill-opacity:1;fill-rule:nonzero;stroke:none"
         d="m 1395.18,2475.19 -464.364,80.52 -6.078,-58.97 c -0.125,-1.2 -0.285,-2.38 -0.484,-3.56 l -1.891,-11.16 456.067,-79.08 1.85,10.95 c 0.22,1.32 0.5,2.63 0.81,3.93 l 14.09,57.37" /><path
         id="path102"
         style="fill:#e02c39;fill-opacity:1;fill-rule:nonzero;stroke:none"
         d="m 1059.96,2726.42 c 7.38,-63.27 54.14,-117.41 120.03,-130.09 67.3,-12.96 132.17,21.63 161.68,79.86 -91.98,30.58 -187.67,47.06 -281.71,50.23" /><path
         id="path104"
         style="fill:#e8e0d8;fill-opacity:1;fill-rule:nonzero;stroke:none"
         d="m 1105.9,2723.84 c 7.9,-40.65 39.55,-74.44 82.7,-82.74 44.14,-8.5 86.83,12.33 108.84,48.64 -63.09,17.74 -127.48,28.97 -191.54,34.1" /><path
         id="path106"
         style="fill:#f78e75;fill-opacity:1;fill-rule:nonzero;stroke:none"
         d="m 1291.99,2902.18 c -26.04,12.45 -57.25,1.43 -69.7,-24.61 l -75.46,-157.84 22.38,-35.37 c 15.74,-24.89 50.14,-29.53 71.92,-9.71 v 0 l 75.46,157.83 c 12.45,26.04 1.44,57.25 -24.6,69.7" /><path
         id="path108"
         style="fill:#f78e75;fill-opacity:1;fill-rule:nonzero;stroke:none"
         d="m 1532.76,3031.15 -66.15,-209.2 c -20.4,-48.9 -58.93,-87.68 -104.66,-108.1 -5.72,0.58 -85.59,27.07 -86.81,27.46 -88.69,28.05 -137.89,122.72 -109.83,211.46 l 55.94,176.9 311.51,-98.52" /><path
         id="path110"
         style="fill:#f78e75;fill-opacity:1;fill-rule:nonzero;stroke:none"
         d="m 1166.31,3013.31 c -24.77,7.83 -51.22,-5.9 -59.03,-30.61 -7.85,-24.79 5.92,-51.18 30.69,-59.01 l 72.93,-23.06 25.65,90.47 -70.24,22.21" /><path
         id="path112"
         style="fill:#101325;fill-opacity:1;fill-rule:nonzero;stroke:none"
         d="m 1616.05,3133.36 -258,81.59 c -41.73,13.2 -85.06,4.81 -118.06,-18.84 -5.18,14.98 -17,27.5 -33.28,32.64 -5.28,1.68 -10.65,2.42 -15.9,2.4 l 9.67,-18.63 c 6.04,-11.64 7.75,-31.39 3.79,-43.92 l -8.55,-27.05 c -0.14,-0.35 -0.32,-0.66 -0.48,-1 l -39.33,-124.33 17.86,-5.65 -10.13,-32.02 c -4.66,-14.75 3.52,-30.45 18.25,-35.11 14.73,-4.66 30.4,3.5 35.06,18.25 l 6.1,19.26 c 9.92,18.96 32.27,28.71 53.42,22.06 l 16.69,52.79 c 9.92,18.94 32.23,28.63 53.36,21.98 l 0.09,0.29 182.84,-57.82 c 29.43,-9.31 60.7,5.42 72.66,33.24 l -46.56,14.73 c 26.28,13.83 48.07,36.29 60.5,65.14" /><path
         id="path114"
         style="fill:#101325;fill-opacity:1;fill-rule:nonzero;stroke:none"
         d="m 1296.64,2862.84 v 0 c -8.27,-26.14 1.62,-56.06 25.96,-68.67 31.5,-16.31 68.45,0.05 78.65,32.3 l 0.94,2.99 c 4.03,12.72 -3.02,26.3 -15.74,30.32 l -59.49,18.81 c -12.72,4.02 -26.3,-3.03 -30.32,-15.75" /><path
         id="path116"
         style="fill:none;stroke:#101325;stroke-width:14.15180016;stroke-linecap:round;stroke-linejoin:miter;stroke-miterlimit:10;stroke-dasharray:none;stroke-opacity:1"
         d="m 1347.61,2962.14 c -0.71,8.14 -6.3,15.49 -14.74,18.16 -8.44,2.67 -17.24,-0.14 -22.49,-6.39" /><path
         id="path118"
         style="fill:none;stroke:#101325;stroke-width:14.15180016;stroke-linecap:round;stroke-linejoin:miter;stroke-miterlimit:10;stroke-dasharray:none;stroke-opacity:1"
         d="m 1460.19,2926.53 c -0.71,8.14 -6.3,15.5 -14.73,18.17 -8.44,2.67 -17.24,-0.14 -22.5,-6.39" /><path
         id="path120"
         style="fill:#f4f0de;fill-opacity:1;fill-rule:nonzero;stroke:none"
         d="m 1400.85,2825.56 c 0.11,0.32 0.3,0.58 0.4,0.91 l 0.94,2.99 c 4.03,12.72 -3.02,26.3 -15.74,30.32 l -59.49,18.81 c -12.72,4.02 -26.3,-3.03 -30.32,-15.75 -0.42,-1.33 -0.59,-2.69 -0.92,-4.03 l 105.13,-33.25" /><path
         id="path122"
         style="fill:#843248;fill-opacity:1;fill-rule:nonzero;stroke:none"
         d="m 1350.35,2794.08 c -6.34,16.19 -19.28,29.7 -36.86,36.21 -6.2,2.29 -12.5,3.14 -18.76,3.39 2.86,-16.54 12.43,-31.51 27.88,-39.51 9.51,-4.92 19.48,-6.56 29.1,-5.98 -0.25,1.94 -0.58,3.91 -1.36,5.89" /><path
         id="path124"
         style="fill:none;stroke:#1c374d;stroke-width:127.37400055;stroke-linecap:butt;stroke-linejoin:miter;stroke-miterlimit:10;stroke-dasharray:none;stroke-opacity:1"
         d="m 891.559,994.449 -47.711,-85.73" /><path
         id="path126"
         style="fill:none;stroke:#1c374d;stroke-width:127.36699677;stroke-linecap:round;stroke-linejoin:miter;stroke-miterlimit:10;stroke-dasharray:none;stroke-opacity:1"
         d="m 919.855,1840.13 97.105,-228.42 c 59.61,-140.21 51.13,-300.1 -22.964,-433.23 L 891.559,994.449" /><path
         id="path128"
         style="fill:#e8e0d8;fill-opacity:1;fill-rule:nonzero;stroke:none"
         d="m 1227.6,2229.62 h -42.07 c -13.57,0 -24.9,10.34 -26.13,23.85 l -10.8,118.1 c -1.27,13.87 9.65,25.83 23.57,25.83 h 68.78 c 13.93,0 24.85,-11.96 23.58,-25.83 l -10.79,-118.1 c -1.24,-13.51 -12.57,-23.85 -26.14,-23.85" /><path
         id="path130"
         style="fill:none;stroke:#f0413e;stroke-width:98.90910339;stroke-linecap:round;stroke-linejoin:miter;stroke-miterlimit:10;stroke-dasharray:none;stroke-opacity:1"
         d="m 1101.16,2283.44 -255.797,-39.2 c -56.187,-8.61 -96.008,53.42 -64.777,100.92 l 213.312,324.43" /><path
         id="path132"
         style="fill:none;stroke:#e8e0d8;stroke-width:98.90910339;stroke-linecap:round;stroke-linejoin:miter;stroke-miterlimit:10;stroke-dasharray:none;stroke-opacity:1"
         d="m 1118,2284.83 -16.84,-1.39" /><path
         id="path134"
         style="fill:#f78e75;fill-opacity:1;fill-rule:nonzero;stroke:none"
         d="m 1189.35,2239.34 h -60.62 c -26.24,0 -47.51,21.27 -47.51,47.51 v 0 c 0,26.24 21.27,47.51 47.51,47.51 h 60.62 c 21.18,0 38.35,-17.18 38.35,-38.36 v -18.3 c 0,-21.18 -17.17,-38.36 -38.35,-38.36" /><path
         id="path136"
         style="fill:#f78e75;fill-opacity:1;fill-rule:nonzero;stroke:none"
         d="m 1868.85,2764.41 c -1.32,-2.11 -2.85,-4.14 -4.57,-6.06 -16.58,-18.47 -45,-20.01 -63.47,-3.43 -35.84,32.17 -48.22,84.19 -31.51,132.54 8.04,23.44 33.68,35.92 57.15,27.8 23.45,-8.1 35.9,-33.69 27.79,-57.15 -4.71,-13.65 -2,-28.58 6.6,-36.3 16.55,-14.85 19.51,-39.21 8.01,-57.4" /><path
         id="path138"
         style="fill:#cdc7ac;fill-opacity:1;fill-rule:nonzero;stroke:none"
         d="m 2287.98,2241.7 h -341.31 v -83.07 h 341.31 v 83.07" /><path
         id="path140"
         style="fill:#42a5ad;fill-opacity:1;fill-rule:nonzero;stroke:none"
         d="m 2286.08,3040.17 h -337.52 c -52.62,0 -95.29,-42.66 -95.29,-95.29 v -607.89 c 0,-52.63 42.67,-95.29 95.29,-95.29 h 337.52 c 52.62,0 95.29,42.66 95.29,95.29 v 607.89 c 0,52.63 -42.67,95.29 -95.29,95.29" /><path
         id="path142"
         style="fill:none;stroke:#f4f0de;stroke-width:21.25979996;stroke-linecap:butt;stroke-linejoin:miter;stroke-miterlimit:4;stroke-dasharray:none;stroke-opacity:1"
         d="m 2286.08,3040.17 h -337.52 c -52.62,0 -95.29,-42.66 -95.29,-95.29 v -607.89 c 0,-52.63 42.67,-95.29 95.29,-95.29 h 337.52 c 52.62,0 95.29,42.66 95.29,95.29 v 607.89 c 0,52.63 -42.67,95.29 -95.29,95.29 z" /><path
         id="path144"
         style="fill:#cdc7ac;fill-opacity:1;fill-rule:nonzero;stroke:none"
         d="m 1902.34,2181.88 h 237.12 c 74.47,0 134.83,-60.36 134.83,-134.83 V 751.051 H 1767.52 V 2047.05 c 0,74.47 60.36,134.83 134.82,134.83" /><path
         id="path146"
         style="fill:#f4f0de;fill-opacity:1;fill-rule:nonzero;stroke:none"
         d="m 2095.2,2181.88 h 237.12 c 74.46,0 134.83,-60.36 134.83,-134.83 V 751.051 H 1960.37 V 2047.05 c 0,74.47 60.36,134.83 134.83,134.83" /><path
         id="path148"
         style="fill:#cdc7ac;fill-opacity:1;fill-rule:nonzero;stroke:none"
         d="m 2098.08,1969.55 h 231.35 c 28.69,0 51.94,-23.25 51.94,-51.93 v -448.4 c 0,-28.68 -23.25,-51.93 -51.94,-51.93 h -231.35 c -28.68,0 -51.93,23.25 -51.93,51.93 v 448.4 c 0,28.68 23.25,51.93 51.93,51.93" /><path
         id="path150"
         style="fill:#f4f0de;fill-opacity:1;fill-rule:nonzero;stroke:none"
         d="m 2076.02,1528.04 h 275.48 v -158.83 h -275.48 v 158.83" /><path
         id="path152"
         style="fill:#f4f0de;fill-opacity:1;fill-rule:nonzero;stroke:none"
         d="m 2297.69,1848.99 h -246.04 c -29.72,0 -53.81,-24.1 -53.81,-53.82 v -417.35 c 0,-29.71 24.09,-53.8 53.81,-53.8 h 246.04 c 29.71,0 53.81,24.09 53.81,53.8 v 417.35 c 0,29.72 -24.1,53.82 -53.81,53.82 z m 0,-25.36 c 15.69,0 28.45,-12.77 28.45,-28.46 v -417.35 c 0,-15.69 -12.76,-28.45 -28.45,-28.45 h -246.04 c -15.69,0 -28.46,12.76 -28.46,28.45 v 417.35 c 0,15.69 12.77,28.46 28.46,28.46 h 246.04" /><path
         id="path154"
         style="fill:#cdc7ac;fill-opacity:1;fill-rule:nonzero;stroke:none"
         d="m 2329.43,1969.55 h -231.35 c -28.68,0 -51.93,-23.25 -51.93,-51.93 v -448.4 c 0,-28.68 23.25,-51.93 51.93,-51.93 h 231.35 c 28.69,0 51.94,23.25 51.94,51.93 v 448.4 c 0,28.68 -23.25,51.93 -51.94,51.93 z m 0,-25.35 c 14.66,0 26.59,-11.92 26.59,-26.58 v -448.4 c 0,-14.66 -11.93,-26.58 -26.59,-26.58 h -231.35 c -14.66,0 -26.58,11.92 -26.58,26.58 v 448.4 c 0,14.66 11.92,26.58 26.58,26.58 h 231.35" /><path
         id="path156"
         style="fill:#42a5ad;fill-opacity:1;fill-rule:nonzero;stroke:none"
         d="m 2260.22,1689.61 h -47.32 v 66.9 c 0,13.05 10.6,23.65 23.65,23.65 v 0 c 13.07,0 23.67,-10.6 23.67,-23.65 v -66.9" /><path
         id="path158"
         style="fill:#e02c39;fill-opacity:1;fill-rule:nonzero;stroke:none"
         d="m 2123.32,1689.61 h -47.3 v 66.9 c 0,13.05 10.58,23.65 23.65,23.65 v 0 c 13.06,0 23.65,-10.6 23.65,-23.65 v -66.9" /><path
         id="path160"
         style="fill:#42a5ad;fill-opacity:1;fill-rule:nonzero;stroke:none"
         d="M 2379.94,2372.95 H 1854.7 c -15.94,0 -28.87,12.93 -28.87,28.87 v 0 c 0,15.95 12.93,28.88 28.87,28.88 h 525.24 c 15.94,0 28.87,-12.93 28.87,-28.88 v 0 c 0,-15.94 -12.93,-28.87 -28.87,-28.87" /><path
         id="path162"
         style="fill:none;stroke:#f4f0de;stroke-width:21.25979996;stroke-linecap:butt;stroke-linejoin:miter;stroke-miterlimit:4;stroke-dasharray:none;stroke-opacity:1"
         d="M 2379.94,2372.95 H 1854.7 c -15.94,0 -28.87,12.93 -28.87,28.87 v 0 c 0,15.95 12.93,28.88 28.87,28.88 h 525.24 c 15.94,0 28.87,-12.93 28.87,-28.88 v 0 c 0,-15.94 -12.93,-28.87 -28.87,-28.87 z" /><path
         id="path164"
         style="fill:#42a5ad;fill-opacity:1;fill-rule:nonzero;stroke:none"
         d="M 2379.94,2532.38 H 1854.7 c -15.94,0 -28.87,12.92 -28.87,28.87 v 0 c 0,15.94 12.93,28.87 28.87,28.87 h 525.24 c 15.94,0 28.87,-12.93 28.87,-28.87 v 0 c 0,-15.95 -12.93,-28.87 -28.87,-28.87" /><path
         id="path166"
         style="fill:none;stroke:#f4f0de;stroke-width:21.25979996;stroke-linecap:butt;stroke-linejoin:miter;stroke-miterlimit:4;stroke-dasharray:none;stroke-opacity:1"
         d="M 2379.94,2532.38 H 1854.7 c -15.94,0 -28.87,12.92 -28.87,28.87 v 0 c 0,15.94 12.93,28.87 28.87,28.87 h 525.24 c 15.94,0 28.87,-12.93 28.87,-28.87 v 0 c 0,-15.95 -12.93,-28.87 -28.87,-28.87 z" /><path
         id="path168"
         style="fill:#42a5ad;fill-opacity:1;fill-rule:nonzero;stroke:none"
         d="M 2379.94,2691.8 H 1854.7 c -15.94,0 -28.87,12.93 -28.87,28.88 v 0 c 0,15.94 12.93,28.87 28.87,28.87 h 525.24 c 15.94,0 28.87,-12.93 28.87,-28.87 v 0 c 0,-15.95 -12.93,-28.88 -28.87,-28.88" /><path
         id="path170"
         style="fill:none;stroke:#f4f0de;stroke-width:21.25979996;stroke-linecap:butt;stroke-linejoin:miter;stroke-miterlimit:4;stroke-dasharray:none;stroke-opacity:1"
         d="M 2379.94,2691.8 H 1854.7 c -15.94,0 -28.87,12.93 -28.87,28.88 v 0 c 0,15.94 12.93,28.87 28.87,28.87 h 525.24 c 15.94,0 28.87,-12.93 28.87,-28.87 v 0 c 0,-15.95 -12.93,-28.88 -28.87,-28.88 z" /><path
         id="path172"
         style="fill:#42a5ad;fill-opacity:1;fill-rule:nonzero;stroke:none"
         d="M 2379.94,2851.23 H 1854.7 c -15.94,0 -28.87,12.93 -28.87,28.87 v 0 c 0,15.95 12.93,28.88 28.87,28.88 h 525.24 c 15.94,0 28.87,-12.93 28.87,-28.88 v 0 c 0,-15.94 -12.93,-28.87 -28.87,-28.87" /><path
         id="path174"
         style="fill:none;stroke:#f4f0de;stroke-width:21.25979996;stroke-linecap:butt;stroke-linejoin:miter;stroke-miterlimit:4;stroke-dasharray:none;stroke-opacity:1"
         d="M 2379.94,2851.23 H 1854.7 c -15.94,0 -28.87,12.93 -28.87,28.87 v 0 c 0,15.95 12.93,28.88 28.87,28.88 h 525.24 c 15.94,0 28.87,-12.93 28.87,-28.88 v 0 c 0,-15.94 -12.93,-28.87 -28.87,-28.87 z" /><path
         id="path176"
         style="fill:none;stroke:#101325;stroke-width:21.25979996;stroke-linecap:round;stroke-linejoin:miter;stroke-miterlimit:4;stroke-dasharray:none;stroke-opacity:1"
         d="m 918.695,702.039 c 0,0 2290.655,0 2460.265,0" /><path
         id="path178"
         style="fill:none;stroke:#101325;stroke-width:21.25979996;stroke-linecap:round;stroke-linejoin:miter;stroke-miterlimit:4;stroke-dasharray:none;stroke-opacity:1"
         d="m 670.367,702.039 c 176.848,0 162.75,0 162.75,0" /><path
         id="path180"
         style="fill:none;stroke:#101325;stroke-width:21.25979996;stroke-linecap:round;stroke-linejoin:miter;stroke-miterlimit:4;stroke-dasharray:none;stroke-opacity:1"
         d="M 463.059,745.211 H 3603.09" /><path
         id="path182"
         style="fill:none;stroke:#101325;stroke-width:21.25979996;stroke-linecap:round;stroke-linejoin:miter;stroke-miterlimit:4;stroke-dasharray:none;stroke-opacity:1"
         d="m 2329.74,655.602 c 71.59,0 505.27,0 592.4,0" /><path
         id="path184"
         style="fill:none;stroke:#101325;stroke-width:21.25979996;stroke-linecap:round;stroke-linejoin:miter;stroke-miterlimit:4;stroke-dasharray:none;stroke-opacity:1"
         d="m 1154.35,655.602 c 755.54,0 499.51,0 1070.71,0" /></g></g></svg>